<svg xmlns="http://www.w3.org/2000/svg" xmlns:svgjs="http://svgjs.com/svgjs" xmlns:xlink="http://www.w3.org/1999/xlink" width="288" height="288"><svg xmlns="http://www.w3.org/2000/svg" width="288" height="288" data-name="Layer 1" viewBox="0 0 168 168"><circle cx="122" cy="30" r="2" fill="#12236b" class="color2d4356 svgShape"/><circle cx="130.5" cy="30" r="2" fill="#12236b" class="color2d4356 svgShape"/><path fill="#12236b" d="M54.997 112A27 27 0 1 0 28 84.998 27.002 27.002 0 0 0 54.997 112zM38 83h-5.908a22.891 22.891 0 0 1 5.302-12.779l4.171 4.172a2 2 0 0 0 2.829-2.828l-4.172-4.172A22.888 22.888 0 0 1 53 62.093V68a2 2 0 0 0 4 0v-5.907a22.894 22.894 0 0 1 12.777 5.301l-4.17 4.17a2 2 0 1 0 2.828 2.83l4.17-4.172A22.891 22.891 0 0 1 77.908 83H72a2 2 0 0 0 0 4h5.907a22.896 22.896 0 0 1-5.302 12.777l-4.17-4.17a2 2 0 0 0-2.829 2.828l4.171 4.17A22.9 22.9 0 0 1 57 107.907V102a2 2 0 0 0-4 0v5.908a22.886 22.886 0 0 1-12.778-5.302l4.172-4.17a2 2 0 1 0-2.829-2.83l-4.171 4.172A22.894 22.894 0 0 1 32.093 87H38a2 2 0 0 0 0-4zm42.001 33h-50a2 2 0 1 0 0 4h50a2 2 0 0 0 0-4zm0 8h-50a2 2 0 1 0 0 4h50a2 2 0 0 0 0-4zm32.996-12A27 27 0 1 0 86 84.998 27.002 27.002 0 0 0 112.997 112zM96 83h-5.908a22.891 22.891 0 0 1 5.302-12.779l4.171 4.172a2 2 0 0 0 2.829-2.828l-4.172-4.172a22.888 22.888 0 0 1 12.778-5.3V68a2 2 0 0 0 4 0v-5.907a22.894 22.894 0 0 1 12.777 5.301l-4.17 4.17a2 2 0 1 0 2.828 2.83l4.17-4.172A22.891 22.891 0 0 1 135.908 83H130a2 2 0 0 0 0 4h5.907a22.896 22.896 0 0 1-5.302 12.777l-4.17-4.17a2 2 0 0 0-2.829 2.828l4.171 4.17A22.9 22.9 0 0 1 115 107.907V102a2 2 0 0 0-4 0v5.908a22.886 22.886 0 0 1-12.778-5.302l4.172-4.17a2 2 0 1 0-2.829-2.83l-4.171 4.172A22.894 22.894 0 0 1 90.093 87H96a2 2 0 0 0 0-4zm42.001 33h-50a2 2 0 0 0 0 4h50a2 2 0 0 0 0-4zm0 8h-50a2 2 0 0 0 0 4h50a2 2 0 0 0 0-4zM154 11a3 3 0 1 0-3-3 3.003 3.003 0 0 0 3 3zm0-4.5a1.5 1.5 0 1 1-1.5 1.5 1.501 1.501 0 0 1 1.5-1.5zM69 8a3 3 0 1 0-3-3 3.003 3.003 0 0 0 3 3zm0-4.5A1.5 1.5 0 1 1 67.5 5 1.501 1.501 0 0 1 69 3.5zM153 19a2 2 0 1 0 2 2 2.002 2.002 0 0 0-2-2zm0 3a1 1 0 1 1 1-1 1.001 1.001 0 0 1-1 1zM96 10a2 2 0 1 0-2-2 2.002 2.002 0 0 0 2 2zm0-3a1 1 0 1 1-1 1 1.001 1.001 0 0 1 1-1zM9 21a2 2 0 1 0-2-2 2.002 2.002 0 0 0 2 2zm0-3a1 1 0 1 1-1 1 1.001 1.001 0 0 1 1-1z" class="color2d4356 svgShape"/><circle cx="2" cy="146" r="2" fill="#12236b" class="color2d4356 svgShape"/><path fill="#12236b" d="M11 144H8a2 2 0 0 0 0 4h3a2 2 0 0 0 0-4zm149 0h-3a2 2 0 0 0 0 4h3a2 2 0 0 0 0-4z" class="color2d4356 svgShape"/><circle cx="166" cy="146" r="2" fill="#12236b" class="color2d4356 svgShape"/><path fill="#12236b" d="M150.721 144h-3.809a7.922 7.922 0 0 0 1.088-4V28a8.023 8.023 0 0 0-8-8H28a8.023 8.023 0 0 0-8 8v112a7.922 7.922 0 0 0 1.088 4h-3.81a2.017 2.017 0 1 0 0 4h133.443a2.017 2.017 0 1 0 0-4ZM24 28a4.004 4.004 0 0 1 4-4h112a4.004 4.004 0 0 1 4 4v8H24Zm4 116a4.004 4.004 0 0 1-4-4V40h120v100a4.004 4.004 0 0 1-4 4Z" class="color2d4356 svgShape"/><path fill="#949fc3" d="M62.46 90.633 57 84.805V76a2 2 0 0 0-4 0v9.596a2.002 2.002 0 0 0 .54 1.367l6 6.404a2 2 0 0 0 2.92-2.734zM115 84.805V76a2 2 0 0 0-4 0v9.596a2.002 2.002 0 0 0 .54 1.367l6 6.404a2 2 0 0 0 2.92-2.734zM13.583 41.011l1.487-1.955-.939-.532-.954 2.19h-.032l-.97-2.175-.955.548 1.471 1.909v.031l-2.3-.297v1.064l2.316-.297v.031l-1.487 1.908.892.564 1.018-2.206h.03l.939 2.19.986-.563-1.502-1.878v-.031l2.362.282V40.73l-2.362.312v-.031zM43.281 14.769l.856-1.126-.54-.306-.55 1.261h-.018l-.558-1.253-.551.316.848 1.099v.018l-1.325-.171v.613l1.334-.171v.018l-.857 1.099.514.324.586-1.27h.018l.54 1.261.568-.324-.865-1.082v-.018l1.36.163v-.613l-1.36.18v-.018zM162 42.713V41.67l-2.317.307v-.031l1.459-1.918-.921-.522-.936 2.148h-.032l-.951-2.133-.937.538 1.443 1.872v.031l-2.256-.292v1.043l2.271-.291v.031l-1.458 1.872.875.553.998-2.165h.03l.921 2.149.967-.552-1.473-1.842v-.031l2.317.276zM123.443 16.586l1.258-1.655-.794-.45-.808 1.853h-.026l-.821-1.84-.808.464 1.245 1.615v.026l-1.947-.251v.9l1.96-.252v.027l-1.258 1.615.754.477.862-1.867h.025l.795 1.853.834-.476-1.271-1.589v-.027l1.999.239v-.9l-1.999.264v-.026zM118.154 153h-8.308a2.006 2.006 0 0 0 0 4h8.308a2.006 2.006 0 0 0 0-4zm-60 0h-8.308a2.006 2.006 0 0 0 0 4h8.308a2.006 2.006 0 0 0 0-4zM104 153H64a2 2 0 0 0 0 4h15.94v2H72a2 2 0 0 0 0 4h25a2 2 0 0 0 0-4h-8.94v-2H104a2 2 0 0 0 0-4z" class="color0bceb2 svgShape"/></svg></svg>