<svg xmlns="http://www.w3.org/2000/svg" xmlns:svgjs="http://svgjs.com/svgjs" xmlns:xlink="http://www.w3.org/1999/xlink" width="288" height="288"><svg xmlns="http://www.w3.org/2000/svg" width="288" height="288" viewBox="0 0 32 32"><path d="M18 4C11.722 4 6.561 8.85 6.051 15H2.998a1 1 0 0 0-.793 1.607l4.002 5.215a1 1 0 0 0 1.586 0l4.002-5.215A1 1 0 0 0 11 15H8.05c.5-5.063 4.754-9 9.951-9 5.535 0 10 4.465 10 10s-4.465 10-10 10c-1.352-.02-1.352 2.02 0 2 6.616 0 12-5.385 12-12 0-6.616-5.384-12-12-12zM5.028 17h3.945L7 19.57z" color="#000" font-family="sans-serif" font-weight="400" overflow="visible" style="line-height:normal;font-variant-ligatures:normal;font-variant-position:normal;font-variant-caps:normal;font-variant-numeric:normal;font-variant-alternates:normal;font-feature-settings:normal;text-indent:0;text-align:start;text-decoration-line:none;text-decoration-style:solid;text-decoration-color:#000;text-transform:none;text-orientation:mixed;shape-padding:0;isolation:auto;mix-blend-mode:normal" fill="#fff" class="color000 svgShape"/><path style="line-height:normal;font-variant-ligatures:normal;font-variant-position:normal;font-variant-caps:normal;font-variant-numeric:normal;font-variant-alternates:normal;font-feature-settings:normal;text-indent:0;text-align:start;text-decoration-line:none;text-decoration-style:solid;text-decoration-color:#000;text-transform:none;text-orientation:mixed;shape-padding:0;isolation:auto;mix-blend-mode:normal" fill="#fff" d="M17.984 8A1 1 0 0 0 17 9.012v6.986a1 1 0 0 0 1 1h6.986c.676.01 1.014-.495 1.014-1s-.338-1.01-1.014-1H19V9.013a.999.999 0 0 0-1.016-1.014Z" class="color000 svgShape" color="#000" font-family="sans-serif" font-weight="400" overflow="visible"/></svg></svg>